<svg width="24" height="24" viewBox="0 0 24 24" fill="none" xmlns="http://www.w3.org/2000/svg">
<path fill-rule="evenodd" clip-rule="evenodd" d="M23.7449 12.2728C23.7449 11.4218 23.6685 10.6037 23.5267 9.81821H12.2249V14.46H18.683C18.4049 15.96 17.5594 17.2309 16.2885 18.0819V21.0928H20.1667C22.4358 19.0037 23.7449 15.9273 23.7449 12.2728Z" fill="#4285F4"/>
<path fill-rule="evenodd" clip-rule="evenodd" d="M12.2244 24C15.4644 24 18.1808 22.9254 20.1662 21.0927L16.288 18.0818C15.2135 18.8018 13.8389 19.2272 12.2244 19.2272C9.09893 19.2272 6.45347 17.1163 5.50983 14.2799H1.50073V17.389C3.47528 21.3109 7.53347 24 12.2244 24Z" fill="#34A853"/>
<path fill-rule="evenodd" clip-rule="evenodd" d="M5.51032 14.2799C5.27032 13.5599 5.13396 12.7909 5.13396 11.9999C5.13396 11.209 5.27032 10.4399 5.51032 9.71994V6.61084H1.50122C0.688491 8.23084 0.224854 10.0636 0.224854 11.9999C0.224854 13.9363 0.688491 15.769 1.50122 17.389L5.51032 14.2799Z" fill="#FBBC05"/>
<path fill-rule="evenodd" clip-rule="evenodd" d="M12.2244 4.77274C13.9862 4.77274 15.568 5.37819 16.8117 6.56729L20.2535 3.12546C18.1753 1.18909 15.4589 0 12.2244 0C7.53347 0 3.47528 2.6891 1.50073 6.61092L5.50983 9.72002C6.45347 6.88365 9.09893 4.77274 12.2244 4.77274Z" fill="#EA4335"/>
</svg>
