<svg width="18" height="22" viewBox="0 0 18 22" fill="none" xmlns="http://www.w3.org/2000/svg">
<path fill-rule="evenodd" clip-rule="evenodd" d="M4.54066 1.20442C7.34976 -0.42779 10.8026 -0.399262 13.5854 1.27915C16.3407 2.99175 18.0154 6.04823 17.9998 9.33614C17.9357 12.6025 16.14 15.6729 13.8953 18.0464C12.5998 19.4225 11.1505 20.6394 9.57709 21.6721C9.41504 21.7658 9.23754 21.8285 9.05334 21.8571C8.87606 21.8496 8.70341 21.7972 8.55097 21.7047C6.14883 20.153 4.04143 18.1723 2.33014 15.858C0.898185 13.926 0.0846459 11.592 1.49366e-06 9.17282C-0.00185744 5.8786 1.73156 2.83663 4.54066 1.20442ZM6.16394 10.5361C6.63647 11.7011 7.75182 12.4609 8.98922 12.4609C9.79986 12.4667 10.5791 12.142 11.1533 11.5592C11.7276 10.9763 12.0491 10.1837 12.0462 9.3579C12.0505 8.09745 11.3085 6.95867 10.1665 6.47326C9.02453 5.98785 7.70793 6.25157 6.83142 7.14128C5.95492 8.031 5.69141 9.3712 6.16394 10.5361Z" fill="white"/>
</svg>
